# xmcd CD database file
#
# Track frame offsets:
#	150
#	34866
#	70219
#	95179
#	121099
#	142013
#	167966
#	200136
#	235742
#	270332
#	292405
#
# Disc length: 4217 seconds
#
# Revision: 0
# Processed by: cddbd v1.5.2PL0 Copyright (c) Steve Scherf et al.
# Submitted via: CDex 1.70beta2
#
DISCID=af10770b
DTITLE=Mike Stern - Big Neighborhood
DYEAR=1900
DGENRE=Jazz
TTITLE0=Big Neighborhood
TTITLE1=6th Street
TTITLE2=Reach
TTITLE3=Song For Pepper
TTITLE4=Coupe De Ville
TTITLE5=Bird Blue
TTITLE6=Moroccan Roll
TTITLE7=Long Time Gone
TTITLE8=Check One
TTITLE9=That's All It Is
TTITLE10=Hope You Don't Mind
EXTD=
EXTT0=
EXTT1=
EXTT2=
EXTT3=
EXTT4=
EXTT5=
EXTT6=
EXTT7=
EXTT8=
EXTT9=
EXTT10=
PLAYORDER=
